<?xml version="1.0" encoding="UTF-8"?>
<svg width="56px" height="50px" viewBox="0 0 56 50" version="1.1" xmlns="http://www.w3.org/2000/svg" xmlns:xlink="http://www.w3.org/1999/xlink">
    <title>ic_silo_news</title>
    <g id="Page-1" stroke="none" stroke-width="1" fill="none" fill-rule="evenodd">
        <g id="VideoStills" transform="translate(-812.000000, -1464.000000)" fill="#FFFFFF" fill-rule="nonzero">
            <path d="M859.313692,1514 C861.899663,1514 863.871066,1513.32259 865.227903,1511.96777 C866.58474,1510.61295 867.263158,1508.64486 867.263158,1506.06349 L867.263158,1471.93651 C867.263158,1469.37117 866.58474,1467.40709 865.227903,1466.04425 C863.871066,1464.68142 861.899663,1464 859.313692,1464 L830.820122,1464 C828.250114,1464 826.286692,1464.68142 824.929855,1466.04425 C823.573018,1467.40709 822.8946,1469.37117 822.8946,1471.93651 L822.8946,1481.02742 L818.53676,1481.02742 C816.493524,1481.02742 814.893255,1481.58858 813.735953,1482.71092 C812.578651,1483.83325 812,1485.3965 812,1487.40067 L812,1506.15969 C812,1507.81113 812.327237,1509.22206 812.981711,1510.3925 C813.636185,1511.56293 814.58198,1512.45679 815.819096,1513.07407 C817.056212,1513.69136 818.552723,1514 820.308629,1514 L859.313692,1514 Z M858.484007,1508.73684 L827.789474,1508.73684 C828.109709,1508.09032 828.269826,1507.35489 828.269826,1506.53057 L828.269826,1472.80617 C828.269826,1471.85255 828.506,1471.13329 828.978346,1470.64839 C829.450693,1470.1635 830.167219,1469.92105 831.127924,1469.92105 L858.484007,1469.92105 C859.444712,1469.92105 860.161238,1470.1635 860.633585,1470.64839 C861.105932,1471.13329 861.342105,1471.85255 861.342105,1472.80617 L861.342105,1505.85172 C861.342105,1506.82151 861.105932,1507.54481 860.633585,1508.02162 C860.161238,1508.49844 859.444712,1508.73684 858.484007,1508.73684 Z M855.73754,1479.13158 C856.211025,1479.13158 856.605595,1478.97216 856.921252,1478.65332 C857.236909,1478.33448 857.394737,1477.94177 857.394737,1477.47518 C857.394737,1477.00859 857.236909,1476.61976 856.921252,1476.3087 C856.605595,1475.99764 856.211025,1475.84211 855.73754,1475.84211 L834.099282,1475.84211 C833.610015,1475.84211 833.203607,1475.99764 832.880059,1476.3087 C832.556511,1476.61976 832.394737,1477.00859 832.394737,1477.47518 C832.394737,1477.94177 832.560457,1478.33448 832.891896,1478.65332 C833.223335,1478.97216 833.625797,1479.13158 834.099282,1479.13158 L855.73754,1479.13158 Z M855.73754,1487.02632 C856.211025,1487.02632 856.605595,1486.8669 856.921252,1486.54806 C857.236909,1486.22922 857.394737,1485.84428 857.394737,1485.39324 C857.394737,1484.92665 857.236909,1484.53394 856.921252,1484.2151 C856.605595,1483.89626 856.211025,1483.73684 855.73754,1483.73684 L834.099282,1483.73684 C833.625797,1483.73684 833.223335,1483.89626 832.891896,1484.2151 C832.560457,1484.53394 832.394737,1484.92665 832.394737,1485.39324 C832.394737,1485.84428 832.556511,1486.22922 832.880059,1486.54806 C833.203607,1486.8669 833.610015,1487.02632 834.099282,1487.02632 L855.73754,1487.02632 Z M819.894737,1508.73684 C819.131254,1508.73684 818.501787,1508.48157 818.006335,1507.97102 C817.510884,1507.46047 817.263158,1506.82431 817.263158,1506.06253 L817.263158,1488.65521 C817.263158,1488.15277 817.409357,1487.75567 817.701754,1487.46393 C817.994152,1487.17219 818.392138,1487.02632 818.895712,1487.02632 L822.526316,1487.02632 L822.526316,1506.06253 C822.526316,1506.85672 822.274529,1507.50099 821.770955,1507.99533 C821.267381,1508.48967 820.641975,1508.73684 819.894737,1508.73684 Z M840.644595,1502.81579 C841.558574,1502.81579 842.276127,1502.55514 842.797255,1502.03384 C843.318383,1501.51254 843.578947,1500.80958 843.578947,1499.92496 L843.578947,1494.52241 C843.578947,1493.63779 843.318383,1492.93482 842.797255,1492.41353 C842.276127,1491.89223 841.558574,1491.63158 840.644595,1491.63158 L835.353141,1491.63158 C834.439162,1491.63158 833.7176,1491.89223 833.188455,1492.41353 C832.65931,1492.93482 832.394737,1493.63779 832.394737,1494.52241 L832.394737,1499.92496 C832.394737,1500.80958 832.65931,1501.51254 833.188455,1502.03384 C833.7176,1502.55514 834.439162,1502.81579 835.353141,1502.81579 L840.644595,1502.81579 Z M855.709788,1494.92105 C856.184421,1494.92105 856.583905,1494.76163 856.908238,1494.4428 C857.23257,1494.12396 857.394737,1493.73902 857.394737,1493.28798 C857.394737,1492.82139 857.23257,1492.42867 856.908238,1492.10984 C856.583905,1491.791 856.184421,1491.63158 855.709788,1491.63158 L847.23758,1491.63158 C846.762947,1491.63158 846.363464,1491.791 846.039131,1492.10984 C845.714798,1492.42867 845.552632,1492.82139 845.552632,1493.28798 C845.552632,1493.73902 845.718753,1494.12396 846.050997,1494.4428 C846.38324,1494.76163 846.778768,1494.92105 847.23758,1494.92105 L855.709788,1494.92105 Z M855.709788,1502.15789 C856.184421,1502.15789 856.583905,1502.00125 856.908238,1501.68797 C857.23257,1501.37469 857.394737,1500.99091 857.394737,1500.53665 C857.394737,1500.06673 857.23257,1499.67121 856.908238,1499.35009 C856.583905,1499.02898 856.184421,1498.86842 855.709788,1498.86842 L847.23758,1498.86842 C846.778768,1498.86842 846.38324,1499.02898 846.050997,1499.35009 C845.718753,1499.67121 845.552632,1500.06673 845.552632,1500.53665 C845.552632,1500.99091 845.714798,1501.37469 846.039131,1501.68797 C846.363464,1502.00125 846.762947,1502.15789 847.23758,1502.15789 L855.709788,1502.15789 Z" id="ic_silo_news"></path>
        </g>
    </g>
</svg>