<?xml version="1.0" encoding="UTF-8"?>
<svg width="50px" height="50px" viewBox="0 0 50 50" version="1.1" xmlns="http://www.w3.org/2000/svg" xmlns:xlink="http://www.w3.org/1999/xlink">
    <title>ic_silo_tune</title>
    <g id="Page-1" stroke="none" stroke-width="1" fill="none" fill-rule="evenodd">
        <g id="VideoStills" transform="translate(-561.000000, -1447.000000)" fill="#FFFFFF" fill-rule="nonzero">
            <path d="M566.543592,1497 C567.579033,1497 568.518895,1496.74856 569.363178,1496.24569 C570.207461,1495.74282 570.876515,1495.06833 571.370341,1494.22222 C571.864166,1493.37612 572.111079,1492.44221 572.111079,1491.4205 C572.111079,1491.16108 572.095647,1490.90765 572.064783,1490.6602 L572.050714,1490.57737 L578.084778,1484.54789 L586.686903,1484.54789 C587.515256,1484.54789 588.339627,1484.39623 589.160015,1484.09291 C589.980402,1483.78959 590.677334,1483.35057 591.250809,1482.77586 L610.032117,1464.24138 C610.685241,1463.60281 611.007821,1462.82455 611,1461.90661 C610.991891,1460.98867 610.669311,1460.20243 610.032117,1459.54789 C609.410852,1458.89336 608.634271,1458.56609 607.702375,1458.56609 C606.770478,1458.56609 605.985932,1458.89336 605.348737,1459.54789 L587.332063,1477.5795 C587.109045,1477.78704 586.862132,1477.95067 586.591324,1478.0704 C586.320517,1478.19013 586.025814,1478.25 585.707217,1478.25 L580.498152,1478.25 L580.163625,1477.8908 L580.163625,1472.04789 C580.163625,1471.72861 580.219379,1471.43327 580.330888,1471.16188 C580.442397,1470.89049 580.601696,1470.65102 580.808784,1470.44349 L598.514826,1452.69923 C599.152021,1452.06066 599.470618,1451.28241 599.470618,1450.36446 C599.470618,1449.44652 599.152021,1448.66028 598.514826,1448.00575 C597.877632,1447.33525 597.097069,1447 596.173136,1447 C595.249204,1447 594.460676,1447.33525 593.807552,1448.00575 L575.336876,1466.80364 C574.715612,1467.42625 574.265593,1468.14064 573.98682,1468.94684 C573.708048,1469.75303 573.568662,1470.56322 573.568662,1471.37739 L573.568662,1479.66284 L567.366788,1485.87808 L567.292545,1485.86419 C567.048121,1485.83276 566.79847,1485.81705 566.543592,1485.81705 C565.524081,1485.81705 564.592184,1486.06849 563.747901,1486.57136 C562.903619,1487.07423 562.234564,1487.74872 561.740739,1488.59483 C561.246913,1489.44093 561,1490.38282 561,1491.4205 C561,1492.44221 561.246913,1493.37612 561.740739,1494.22222 C562.234564,1495.06833 562.903619,1495.74282 563.747901,1496.24569 C564.592184,1496.74856 565.524081,1497 566.543592,1497 Z" id="ic_silo_tune"></path>
        </g>
    </g>
</svg>