<?xml version="1.0" encoding="UTF-8"?>
<svg width="34px" height="50px" viewBox="0 0 34 50" version="1.1" xmlns="http://www.w3.org/2000/svg" xmlns:xlink="http://www.w3.org/1999/xlink">
    <title>ic_silo_idea</title>
    <g id="Page-1" stroke="none" stroke-width="1" fill="none" fill-rule="evenodd">
        <g id="VideoStills" transform="translate(-800.000000, -1451.000000)" fill="#FFFFFF" fill-rule="nonzero">
            <path d="M824.677873,1490.0625 C825.072113,1490.0625 825.390537,1489.94159 825.633146,1489.69976 C825.875755,1489.45793 825.997059,1489.14054 825.997059,1488.74757 L825.997059,1485.39223 C825.997059,1484.34935 826.25104,1483.36316 826.759003,1482.43364 C827.266965,1481.50412 827.900023,1480.54815 828.658175,1479.56573 C829.416328,1478.58331 830.17069,1477.51776 830.921261,1476.36909 C831.671833,1475.22041 832.30489,1473.92815 832.820434,1472.49231 C833.335978,1471.05647 833.59375,1469.40147 833.59375,1467.52731 C833.59375,1465.04859 833.19572,1462.79659 832.399659,1460.77129 C831.603599,1458.746 830.462579,1457.00031 828.9766,1455.53424 C827.49062,1454.06817 825.716543,1452.94595 823.654367,1452.16757 C821.592191,1451.38919 819.30257,1451 816.785503,1451 C814.268435,1451 811.982605,1451.38919 809.928011,1452.16757 C807.873417,1452.94595 806.10313,1454.06817 804.61715,1455.53424 C803.131171,1457.00031 801.990151,1458.746 801.194091,1460.77129 C800.39803,1462.79659 800,1465.04859 800,1467.52731 C800,1469.40147 800.253981,1471.05647 800.761944,1472.49231 C801.269906,1473.92815 801.902963,1475.22041 802.661116,1476.36909 C803.419269,1477.51776 804.173631,1478.58331 804.924202,1479.56573 C805.674774,1480.54815 806.307831,1481.50412 806.823375,1482.43364 C807.338919,1483.36316 807.596691,1484.34935 807.596691,1485.39223 L807.596691,1488.74757 C807.596691,1489.14054 807.714205,1489.45793 807.949232,1489.69976 C808.184259,1489.94159 808.506474,1490.0625 808.915877,1490.0625 L824.677873,1490.0625 Z M822.124019,1486.15625 L810.709039,1486.15625 L810.711031,1484.99762 L810.711031,1484.99762 C810.711031,1483.69709 810.452848,1482.50619 809.936482,1481.42493 C809.420115,1480.34367 808.789844,1479.28887 808.045669,1478.26054 C807.301494,1477.23221 806.549725,1476.17363 805.790362,1475.08481 C805.031,1473.99599 804.396932,1472.80509 803.888159,1471.51212 C803.379386,1470.21914 803.125,1468.75604 803.125,1467.12281 C803.125,1464.52173 803.679335,1462.24201 804.788004,1460.28365 C805.896673,1458.32528 807.445773,1456.80925 809.435302,1455.73555 C811.424832,1454.66185 813.748481,1454.125 816.40625,1454.125 C819.079206,1454.125 821.406652,1454.66185 823.388588,1455.73555 C825.370524,1456.80925 826.915827,1458.32528 828.024496,1460.28365 C829.133165,1462.24201 829.6875,1464.52173 829.6875,1467.12281 C829.6875,1468.75604 829.433114,1470.21914 828.924341,1471.51212 C828.415568,1472.80509 827.785297,1473.99599 827.033528,1475.08481 C826.281759,1476.17363 825.52999,1477.23221 824.778221,1478.26054 C824.026453,1479.28887 823.396182,1480.34367 822.887409,1481.42493 C822.378636,1482.50619 822.12425,1483.69709 822.12425,1484.99762 L822.124019,1486.15625 Z M823.700486,1495.53125 C824.270769,1495.53125 824.760134,1495.33914 825.16858,1494.95492 C825.577027,1494.5707 825.78125,1494.10821 825.78125,1493.56745 C825.78125,1493.0267 825.577027,1492.56777 825.16858,1492.19066 C824.760134,1491.81355 824.270769,1491.625 823.700486,1491.625 L809.112014,1491.625 C808.526318,1491.625 808.0331,1491.81355 807.63236,1492.19066 C807.23162,1492.56777 807.03125,1493.0267 807.03125,1493.56745 C807.03125,1494.10821 807.23162,1494.5707 807.63236,1494.95492 C808.0331,1495.33914 808.526318,1495.53125 809.112014,1495.53125 L823.700486,1495.53125 Z M816.394833,1501 C817.932324,1501 819.203419,1500.64338 820.208116,1499.93014 C821.212813,1499.21689 821.768441,1498.27143 821.875,1497.09375 L810.9375,1497.09375 C811.028836,1498.27143 811.573047,1499.21689 812.570133,1499.93014 C813.567219,1500.64338 814.842119,1501 816.394833,1501 Z" id="ic_silo_idea"></path>
        </g>
    </g>
</svg>