<?xml version="1.0" encoding="UTF-8"?>
<svg width="47px" height="50px" viewBox="0 0 47 50" version="1.1" xmlns="http://www.w3.org/2000/svg" xmlns:xlink="http://www.w3.org/1999/xlink">
    <title>ic_silo_et</title>
    <g id="Page-1" stroke="none" stroke-width="1" fill="none" fill-rule="evenodd">
        <g id="VideoStills" transform="translate(-416.000000, -1408.000000)" fill="#FFFFFF" fill-rule="nonzero">
            <path d="M439.416216,1420.27273 C440.148172,1420.27273 440.759433,1420.01261 441.249999,1419.49238 C441.740566,1418.97215 441.985849,1418.31004 441.985849,1417.50604 L441.985849,1414.59748 L443.761232,1415.49606 C444.306306,1415.71676 444.870846,1415.77982 445.454854,1415.68523 C446.038861,1415.59065 446.494387,1415.30688 446.821431,1414.83395 C447.148476,1414.4083 447.327571,1413.93931 447.358718,1413.42696 C447.389865,1412.91461 447.273064,1412.42197 447.008314,1411.94903 C446.743564,1411.47609 446.323078,1411.08986 445.746858,1410.79033 L442.382974,1408.87493 C441.277253,1408.29164 440.28444,1408 439.404535,1408 C438.524631,1408 437.531818,1408.29164 436.426097,1408.87493 L433.062213,1410.79033 C432.485993,1411.08986 432.065507,1411.47609 431.800757,1411.94903 C431.536007,1412.42197 431.423099,1412.91461 431.462033,1413.42696 C431.500967,1413.93931 431.676169,1414.4083 431.98764,1414.83395 C432.330257,1415.30688 432.785783,1415.59065 433.354217,1415.68523 C433.922651,1415.77982 434.494979,1415.71676 435.071199,1415.49606 L436.823222,1414.57383 L436.823222,1417.50604 C436.823222,1418.31004 437.068505,1418.97215 437.559072,1419.49238 C438.049638,1420.01261 438.668686,1420.27273 439.416216,1420.27273 Z M418.952598,1431.63636 C419.691017,1431.63636 420.295891,1431.37425 420.767222,1430.85003 C421.238552,1430.32581 421.474218,1429.67249 421.474218,1428.89007 L421.474218,1425.88558 L424.7264,1427.71644 C425.401974,1428.07635 426.081476,1428.15851 426.764905,1427.9629 C427.448335,1427.7673 427.986437,1427.34088 428.379213,1426.68365 C428.756278,1426.04206 428.826977,1425.377 428.591312,1424.68848 C428.355647,1423.99995 427.884316,1423.46008 427.17732,1423.06887 L424.325769,1421.47273 L426.918088,1420.0409 C427.420841,1419.75923 427.797905,1419.39541 428.049282,1418.94943 C428.300658,1418.50345 428.406707,1418.03008 428.36743,1417.52933 C428.328152,1417.02859 428.135692,1416.57478 427.79005,1416.16792 C427.303008,1415.60458 426.678495,1415.30726 425.91651,1415.27596 C425.154525,1415.24467 424.380757,1415.44027 423.595206,1415.86278 L419.588895,1418.0692 C418.520545,1418.64819 417.731066,1419.35628 417.220458,1420.19347 C416.70985,1421.03066 416.454545,1422.07519 416.454545,1423.32706 L416.454545,1428.89007 C416.454545,1429.68814 416.694139,1430.34537 417.173325,1430.86177 C417.652511,1431.37817 418.245602,1431.63636 418.952598,1431.63636 Z M459.841318,1431.63636 C460.564226,1431.63636 461.165339,1431.37817 461.644658,1430.86177 C462.123977,1430.34537 462.363636,1429.68814 462.363636,1428.89007 L462.363636,1423.32706 C462.363636,1422.0126 462.123977,1420.96024 461.644658,1420.17 C461.165339,1419.37976 460.359926,1418.67949 459.228419,1418.0692 L455.197424,1415.86278 C454.411656,1415.44027 453.645531,1415.24467 452.899051,1415.27596 C452.15257,1415.30726 451.527884,1415.60458 451.024992,1416.16792 C450.663538,1416.57478 450.467096,1417.02859 450.435665,1417.52933 C450.404234,1418.03008 450.514242,1418.50345 450.765688,1418.94943 C451.017134,1419.39541 451.394303,1419.75923 451.897195,1420.0409 L454.490232,1421.47273 L451.661465,1423.06887 C450.938557,1423.46008 450.459238,1423.99995 450.223508,1424.68848 C449.987777,1425.377 450.066354,1426.04206 450.459238,1426.68365 C450.836407,1427.34088 451.366801,1427.7673 452.05042,1427.9629 C452.734039,1428.15851 453.413729,1428.07635 454.08949,1427.71644 L457.366146,1425.88558 L457.366146,1428.89007 C457.366146,1429.67249 457.597948,1430.32581 458.061552,1430.85003 C458.525156,1431.37425 459.118411,1431.63636 459.841318,1431.63636 Z M439.41145,1441.18182 C440.142947,1441.18182 440.753825,1440.91913 441.244084,1440.39375 C441.734343,1439.86837 441.979472,1439.2136 441.979472,1438.42945 L441.979472,1434.47734 L445.387937,1432.59538 C446.103871,1432.2033 446.570784,1431.6544 446.788676,1430.94866 C447.006569,1430.24293 446.92875,1429.56856 446.55522,1428.92556 C446.166126,1428.26687 445.644739,1427.83951 444.991061,1427.64347 C444.337383,1427.44744 443.660359,1427.54545 442.959989,1427.93753 L439.41145,1429.91359 L435.839565,1427.93753 C435.139195,1427.54545 434.462172,1427.44744 433.808493,1427.64347 C433.154815,1427.83951 432.641211,1428.26687 432.26768,1428.92556 C431.89415,1429.56856 431.81244,1430.24293 432.022551,1430.94866 C432.232662,1431.6544 432.695684,1432.2033 433.411617,1432.59538 L436.820083,1434.47734 L436.820083,1438.42945 C436.820083,1439.2136 437.065212,1439.86837 437.555471,1440.39375 C438.045729,1440.91913 438.664389,1441.18182 439.41145,1441.18182 Z M424.117778,1449.73599 C424.852526,1449.55256 425.401612,1449.12588 425.765036,1448.45595 C426.081056,1447.86577 426.164012,1447.25566 426.013902,1446.6256 C425.863792,1445.99555 425.543821,1445.48911 425.053989,1445.1063 L423.797808,1444.24496 L426.262768,1442.85725 C426.973814,1442.45848 427.447845,1441.90818 427.684861,1441.20635 C427.921876,1440.50451 427.842871,1439.81863 427.447845,1439.1487 C427.068621,1438.47877 426.539286,1438.04013 425.859842,1437.83277 C425.180398,1437.62541 424.493053,1437.72111 423.797808,1438.11988 L421.095832,1439.65115 L420.977324,1438.0481 C420.898319,1437.36222 420.629701,1436.80395 420.171472,1436.37328 C419.713242,1435.94261 419.160206,1435.72727 418.512364,1435.72727 C417.785516,1435.72727 417.185077,1435.99445 416.711046,1436.5288 C416.237015,1437.06315 416,1437.72909 416,1438.52662 L416,1442.16339 C416,1443.75846 416.268617,1444.96274 416.805852,1445.77623 C417.343087,1446.58971 418.212144,1447.33142 419.413022,1448.00135 L421.854281,1449.36514 C422.628531,1449.79581 423.383031,1449.91943 424.117778,1449.73599 Z M456.509355,1449.36514 L458.974316,1448.00135 C460.159393,1447.33142 461.020549,1446.58971 461.557784,1445.77623 C462.095019,1444.96274 462.363636,1443.75846 462.363636,1442.16339 L462.363636,1438.52662 C462.363636,1437.72909 462.126621,1437.06315 461.65259,1436.5288 C461.178559,1435.99445 460.57022,1435.72727 459.827571,1435.72727 C459.19553,1435.72727 458.654345,1435.94261 458.204016,1436.37328 C457.753686,1436.80395 457.481119,1437.36222 457.386312,1438.0481 L457.244103,1439.6033 L454.58953,1438.11988 C453.878484,1437.72111 453.183239,1437.62541 452.503795,1437.83277 C451.82435,1438.04013 451.295016,1438.47877 450.915791,1439.1487 C450.520765,1439.81863 450.44176,1440.50451 450.678776,1441.20635 C450.915791,1441.90818 451.389822,1442.45848 452.100868,1442.85725 L454.58953,1444.26888 L453.309647,1445.1063 C452.819815,1445.48911 452.499844,1445.99555 452.349734,1446.6256 C452.199625,1447.25566 452.290481,1447.86577 452.622302,1448.45595 C452.969925,1449.12588 453.51111,1449.55256 454.245858,1449.73599 C454.980606,1449.91943 455.735105,1449.79581 456.509355,1449.36514 Z M441.402184,1457.45471 L447.699887,1453.9933 C448.407494,1453.61396 448.863507,1453.08448 449.067927,1452.40484 C449.272347,1451.7252 449.201586,1451.04556 448.855645,1450.36593 C448.509704,1449.70209 447.98293,1449.28325 447.275323,1449.10939 C446.567716,1448.93552 445.860109,1449.04616 445.152501,1449.4413 L442.015444,1451.21942 L442.015444,1447.59205 C442.015444,1446.78597 441.767781,1446.12214 441.272456,1445.60056 C440.777131,1445.07897 440.159941,1444.81818 439.420884,1444.81818 C438.666104,1444.81818 438.041051,1445.07897 437.545726,1445.60056 C437.050401,1446.12214 436.802738,1446.78597 436.802738,1447.59205 L436.802738,1451.21942 L433.642093,1449.4413 C432.934486,1449.04616 432.230811,1448.93552 431.531066,1449.10939 C430.831321,1449.28325 430.308478,1449.70209 429.962537,1450.36593 C429.616596,1451.04556 429.545835,1451.7252 429.750255,1452.40484 C429.954674,1453.08448 430.410688,1453.61396 431.118295,1453.9933 L437.415998,1457.45471 C438.752589,1458.18176 440.081318,1458.18176 441.402184,1457.45471 Z" id="ic_silo_et"></path>
        </g>
    </g>
</svg>