<?xml version="1.0" encoding="UTF-8"?>
<svg width="33px" height="50px" viewBox="0 0 33 50" version="1.1" xmlns="http://www.w3.org/2000/svg" xmlns:xlink="http://www.w3.org/1999/xlink">
    <title>ic_silo_mobileapps</title>
    <g id="Page-1" stroke="none" stroke-width="1" fill="none" fill-rule="evenodd">
        <g id="VideoStills" transform="translate(-294.000000, -1430.000000)" fill="#FFFFFF" fill-rule="nonzero">
            <path d="M319.517717,1480 C321.481209,1480 323.065041,1479.39902 324.269213,1478.19706 C325.473385,1476.9951 326.075472,1475.41418 326.075472,1473.45429 L326.075472,1436.56867 C326.075472,1434.59348 325.473385,1433.0049 324.269213,1431.80294 C323.065041,1430.60098 321.481209,1430 319.517717,1430 L300.810861,1430 C298.77067,1430 297.125479,1430.60098 295.875288,1431.80294 C294.625096,1433.0049 294,1434.58582 294,1436.54571 L294,1473.45429 C294,1475.41418 294.625096,1476.9951 295.875288,1478.19706 C297.125479,1479.39902 298.77067,1480 300.810861,1480 L319.517717,1480 Z M318.176073,1474.33962 L302.135248,1474.33962 C301.356122,1474.33962 300.748862,1474.13299 300.313468,1473.71974 C299.878074,1473.30648 299.660377,1472.70955 299.660377,1471.92895 L299.660377,1437.85816 C299.660377,1437.07756 299.878074,1436.4768 300.313468,1436.05589 C300.748862,1435.63498 301.356122,1435.42453 302.135248,1435.42453 L318.176073,1435.42453 C318.955199,1435.42453 319.562459,1435.63881 319.997853,1436.06737 C320.433246,1436.49594 320.650943,1437.09286 320.650943,1437.85816 L320.650943,1471.92895 C320.650943,1472.67894 320.433246,1473.26821 319.997853,1473.69678 C319.562459,1474.12534 318.955199,1474.33962 318.176073,1474.33962 Z M305.141737,1442.26415 C305.73278,1442.26415 306.028302,1441.99733 306.028302,1441.46369 L306.028302,1439.31389 C306.028302,1438.76501 305.73278,1438.49057 305.141737,1438.49057 L303.050352,1438.49057 C302.519929,1438.49057 302.254717,1438.76501 302.254717,1439.31389 L302.254717,1441.46369 C302.254717,1441.99733 302.519929,1442.26415 303.050352,1442.26415 L305.141737,1442.26415 Z M311.060696,1442.26415 C311.636584,1442.26415 311.924528,1441.99733 311.924528,1441.46369 L311.924528,1439.31389 C311.924528,1438.76501 311.636584,1438.49057 311.060696,1438.49057 L308.969311,1438.49057 C308.423733,1438.49057 308.150943,1438.76501 308.150943,1439.31389 L308.150943,1441.46369 C308.150943,1441.99733 308.423733,1442.26415 308.969311,1442.26415 L311.060696,1442.26415 Z M316.939498,1442.26415 C317.527003,1442.26415 317.820755,1441.99733 317.820755,1441.46369 L317.820755,1439.31389 C317.820755,1438.76501 317.527003,1438.49057 316.939498,1438.49057 L314.860637,1438.49057 C314.318326,1438.49057 314.04717,1438.76501 314.04717,1439.31389 L314.04717,1441.46369 C314.04717,1441.99733 314.318326,1442.26415 314.860637,1442.26415 L316.939498,1442.26415 Z M305.141737,1448.16038 C305.73278,1448.16038 306.028302,1447.89517 306.028302,1447.36474 L306.028302,1445.18243 C306.028302,1444.652 305.73278,1444.38679 305.141737,1444.38679 L303.050352,1444.38679 C302.519929,1444.38679 302.254717,1444.652 302.254717,1445.18243 L302.254717,1447.36474 C302.254717,1447.89517 302.519929,1448.16038 303.050352,1448.16038 L305.141737,1448.16038 Z M311.060696,1448.16038 C311.636584,1448.16038 311.924528,1447.89517 311.924528,1447.36474 L311.924528,1445.18243 C311.924528,1444.652 311.636584,1444.38679 311.060696,1444.38679 L308.969311,1444.38679 C308.423733,1444.38679 308.150943,1444.652 308.150943,1445.18243 L308.150943,1447.36474 C308.150943,1447.89517 308.423733,1448.16038 308.969311,1448.16038 L311.060696,1448.16038 Z M316.939498,1448.16038 C317.527003,1448.16038 317.820755,1447.89517 317.820755,1447.36474 L317.820755,1445.18243 C317.820755,1444.652 317.527003,1444.38679 316.939498,1444.38679 L314.860637,1444.38679 C314.318326,1444.38679 314.04717,1444.652 314.04717,1445.18243 L314.04717,1447.36474 C314.04717,1447.89517 314.318326,1448.16038 314.860637,1448.16038 L316.939498,1448.16038 Z M305.141737,1454.29245 C305.73278,1454.29245 306.028302,1454.0213 306.028302,1453.47899 L306.028302,1451.33234 C306.028302,1450.79002 305.73278,1450.51887 305.141737,1450.51887 L303.050352,1450.51887 C302.519929,1450.51887 302.254717,1450.79002 302.254717,1451.33234 L302.254717,1453.47899 C302.254717,1454.0213 302.519929,1454.29245 303.050352,1454.29245 L305.141737,1454.29245 Z M311.060696,1454.29245 C311.636584,1454.29245 311.924528,1454.0213 311.924528,1453.47899 L311.924528,1451.33234 C311.924528,1450.79002 311.636584,1450.51887 311.060696,1450.51887 L308.969311,1450.51887 C308.423733,1450.51887 308.150943,1450.79002 308.150943,1451.33234 L308.150943,1453.47899 C308.150943,1454.0213 308.423733,1454.29245 308.969311,1454.29245 L311.060696,1454.29245 Z M305.141737,1471.50943 C305.73278,1471.50943 306.028302,1471.24422 306.028302,1470.7138 L306.028302,1468.53148 C306.028302,1468.00106 305.73278,1467.73585 305.141737,1467.73585 L303.050352,1467.73585 C302.519929,1467.73585 302.254717,1468.00106 302.254717,1468.53148 L302.254717,1470.7138 C302.254717,1471.24422 302.519929,1471.50943 303.050352,1471.50943 L305.141737,1471.50943 Z M311.060696,1471.50943 C311.636584,1471.50943 311.924528,1471.24422 311.924528,1470.7138 L311.924528,1468.53148 C311.924528,1468.00106 311.636584,1467.73585 311.060696,1467.73585 L308.969311,1467.73585 C308.423733,1467.73585 308.150943,1468.00106 308.150943,1468.53148 L308.150943,1470.7138 C308.150943,1471.24422 308.423733,1471.50943 308.969311,1471.50943 L311.060696,1471.50943 Z M316.939498,1471.50943 C317.527003,1471.50943 317.820755,1471.24422 317.820755,1470.7138 L317.820755,1468.53148 C317.820755,1468.00106 317.527003,1467.73585 316.939498,1467.73585 L314.860637,1467.73585 C314.318326,1467.73585 314.04717,1468.00106 314.04717,1468.53148 L314.04717,1470.7138 C314.04717,1471.24422 314.318326,1471.50943 314.860637,1471.50943 L316.939498,1471.50943 Z" id="ic_silo_mobileapps"></path>
        </g>
    </g>
</svg>